<svg width="30" height="30" viewBox="0 0 30 30" fill="none" xmlns="http://www.w3.org/2000/svg">
<g clip-path="url(#clip0_105_2)">
<path d="M15.0002 21.4625C14.1789 21.464 13.3654 21.3035 12.6061 20.9904C11.8468 20.6772 11.1567 20.2175 10.5752 19.6375L0.362732 9.42499C0.127352 9.18961 -0.00488281 8.87037 -0.00488281 8.53749C-0.00488281 8.20462 0.127352 7.88537 0.362732 7.64999C0.598111 7.41461 0.917355 7.28238 1.25023 7.28238C1.58311 7.28238 1.90235 7.41461 2.13773 7.64999L12.3502 17.8625C13.0534 18.5647 14.0065 18.9592 15.0002 18.9592C15.994 18.9592 16.9471 18.5647 17.6502 17.8625L27.8627 7.64999C28.0981 7.41461 28.4174 7.28238 28.7502 7.28238C29.0831 7.28238 29.4024 7.41461 29.6377 7.64999C29.8731 7.88537 30.0053 8.20462 30.0053 8.53749C30.0053 8.87037 29.8731 9.18961 29.6377 9.42499L19.4252 19.6375C18.8437 20.2175 18.1536 20.6772 17.3944 20.9904C16.6351 21.3035 15.8215 21.464 15.0002 21.4625Z" fill="black"/>
</g>
<defs>
<clipPath id="clip0_105_2">
<rect width="30" height="30" fill="white"/>
</clipPath>
</defs>
</svg>
