<svg width="80" height="80" viewBox="0 0 80 80" fill="none" xmlns="http://www.w3.org/2000/svg">
<path d="M8.77417 5C6.53784 5 4.75677 6.98637 5.02661 9.20654L11.8601 65.7617C12.163 68.2649 13.9522 70.3468 16.384 71.0376L38.303 77.2607C39.4068 77.5737 40.5773 77.581 41.6868 77.2803L64.7385 71.0352C67.2491 70.3554 69.0912 68.1972 69.3503 65.6152L75.0364 9.13086C75.2577 6.93446 73.4893 5 71.2815 5H8.77417ZM8.77417 7.5H71.2815C72.0612 7.5 72.6248 8.12574 72.5486 8.88184L72.3679 10.6763C72.263 10.4652 72.1004 10.2881 71.8991 10.1654C71.6978 10.0427 71.4659 9.97945 71.2302 9.98291C70.8991 9.98809 70.5836 10.1244 70.3529 10.362C70.1222 10.5995 69.9952 10.9189 69.9998 11.25V13.75C69.9968 13.9786 70.0566 14.2037 70.1726 14.4006C70.2887 14.5976 70.4565 14.759 70.6579 14.8673C70.8593 14.9755 71.0865 15.0265 71.3148 15.0146C71.5432 15.0027 71.7638 14.9284 71.9529 14.7998L66.8625 65.3638C66.8625 65.3646 66.8625 65.3654 66.8625 65.3662C66.7067 66.9193 65.6111 68.2103 64.0867 68.623C64.0859 68.623 64.085 68.623 64.0842 68.623L41.0325 74.8682C40.362 75.0499 39.6552 75.0456 38.9866 74.856L17.0676 68.6328C15.5919 68.2136 14.5251 66.9658 14.343 65.4614L8.23462 14.9048C8.42624 14.9914 8.63662 15.0284 8.84629 15.0121C9.05596 14.9959 9.25815 14.927 9.43413 14.8119C9.61012 14.6967 9.75422 14.5391 9.85308 14.3534C9.95195 14.1678 10.0024 13.9603 9.99976 13.75V11.25C10.002 11.0828 9.97076 10.9168 9.90774 10.7618C9.84472 10.6069 9.75125 10.4662 9.63287 10.3481C9.51449 10.2299 9.37361 10.1367 9.21856 10.074C9.06351 10.0113 8.89746 9.9803 8.73023 9.98291C8.52691 9.98625 8.32747 10.0391 8.14921 10.137C7.97096 10.2348 7.81926 10.3747 7.70728 10.5444L7.50952 8.90625C7.50952 8.90544 7.50952 8.90462 7.50952 8.90381C7.41687 8.14148 7.9855 7.5 8.77417 7.5ZM14.9802 9.98291C14.6491 9.98809 14.3336 10.1244 14.1029 10.362C13.8722 10.5995 13.7452 10.9189 13.7498 11.25V13.75C13.7474 13.9156 13.778 14.0801 13.8398 14.2338C13.9016 14.3875 13.9933 14.5274 14.1096 14.6454C14.2259 14.7633 14.3645 14.857 14.5173 14.9209C14.6701 14.9849 14.8341 15.0178 14.9998 15.0178C15.1654 15.0178 15.3294 14.9849 15.4822 14.9209C15.6351 14.857 15.7737 14.7633 15.89 14.6454C16.0063 14.5274 16.098 14.3875 16.1597 14.2338C16.2215 14.0801 16.2521 13.9156 16.2498 13.75V11.25C16.252 11.0828 16.2208 10.9168 16.1577 10.7618C16.0947 10.6069 16.0012 10.4662 15.8829 10.3481C15.7645 10.2299 15.6236 10.1367 15.4686 10.074C15.3135 10.0113 15.1475 9.9803 14.9802 9.98291ZM21.2302 9.98291C20.8991 9.98809 20.5836 10.1244 20.3529 10.362C20.1222 10.5995 19.9952 10.9189 19.9998 11.25V13.75C19.9974 13.9156 20.028 14.0801 20.0898 14.2338C20.1516 14.3875 20.2433 14.5274 20.3596 14.6454C20.4759 14.7633 20.6145 14.857 20.7673 14.9209C20.9201 14.9849 21.0841 15.0178 21.2498 15.0178C21.4154 15.0178 21.5794 14.9849 21.7322 14.9209C21.8851 14.857 22.0237 14.7633 22.14 14.6454C22.2563 14.5274 22.348 14.3875 22.4097 14.2338C22.4715 14.0801 22.5021 13.9156 22.4998 13.75V11.25C22.502 11.0828 22.4708 10.9168 22.4077 10.7618C22.3447 10.6069 22.2512 10.4662 22.1329 10.3481C22.0145 10.2299 21.8736 10.1367 21.7186 10.074C21.5635 10.0113 21.3975 9.9803 21.2302 9.98291ZM27.4802 9.98291C27.1491 9.98809 26.8336 10.1244 26.6029 10.362C26.3722 10.5995 26.2452 10.9189 26.2498 11.25V13.75C26.2474 13.9156 26.278 14.0801 26.3398 14.2338C26.4016 14.3875 26.4933 14.5274 26.6096 14.6454C26.7259 14.7633 26.8645 14.857 27.0173 14.9209C27.1701 14.9849 27.3341 15.0178 27.4998 15.0178C27.6654 15.0178 27.8294 14.9849 27.9822 14.9209C28.1351 14.857 28.2737 14.7633 28.39 14.6454C28.5063 14.5274 28.598 14.3875 28.6597 14.2338C28.7215 14.0801 28.7521 13.9156 28.7498 13.75V11.25C28.752 11.0828 28.7208 10.9168 28.6577 10.7618C28.5947 10.6069 28.5012 10.4662 28.3829 10.3481C28.2645 10.2299 28.1236 10.1367 27.9686 10.074C27.8135 10.0113 27.6475 9.9803 27.4802 9.98291ZM33.7302 9.98291C33.3991 9.98809 33.0836 10.1244 32.8529 10.362C32.6222 10.5995 32.4952 10.9189 32.4998 11.25V13.75C32.4974 13.9156 32.528 14.0801 32.5898 14.2338C32.6516 14.3875 32.7433 14.5274 32.8596 14.6454C32.9759 14.7633 33.1145 14.857 33.2673 14.9209C33.4201 14.9849 33.5841 15.0178 33.7498 15.0178C33.9154 15.0178 34.0794 14.9849 34.2322 14.9209C34.3851 14.857 34.5237 14.7633 34.64 14.6454C34.7563 14.5274 34.848 14.3875 34.9097 14.2338C34.9715 14.0801 35.0021 13.9156 34.9998 13.75V11.25C35.002 11.0828 34.9708 10.9168 34.9077 10.7618C34.8447 10.6069 34.7512 10.4662 34.6329 10.3481C34.5145 10.2299 34.3736 10.1367 34.2186 10.074C34.0635 10.0113 33.8975 9.9803 33.7302 9.98291ZM39.9802 9.98291C39.6491 9.98809 39.3336 10.1244 39.1029 10.362C38.8722 10.5995 38.7452 10.9189 38.7498 11.25V13.75C38.7474 13.9156 38.778 14.0801 38.8398 14.2338C38.9016 14.3875 38.9933 14.5274 39.1096 14.6454C39.2259 14.7633 39.3645 14.857 39.5173 14.9209C39.6701 14.9849 39.8341 15.0178 39.9998 15.0178C40.1654 15.0178 40.3294 14.9849 40.4822 14.9209C40.6351 14.857 40.7737 14.7633 40.89 14.6454C41.0063 14.5274 41.098 14.3875 41.1597 14.2338C41.2215 14.0801 41.2521 13.9156 41.2498 13.75V11.25C41.252 11.0828 41.2208 10.9168 41.1577 10.7618C41.0947 10.6069 41.0012 10.4662 40.8829 10.3481C40.7645 10.2299 40.6236 10.1367 40.4686 10.074C40.3135 10.0113 40.1475 9.9803 39.9802 9.98291ZM46.2302 9.98291C45.8991 9.98809 45.5836 10.1244 45.3529 10.362C45.1222 10.5995 44.9952 10.9189 44.9998 11.25V13.75C44.9974 13.9156 45.028 14.0801 45.0898 14.2338C45.1516 14.3875 45.2433 14.5274 45.3596 14.6454C45.4759 14.7633 45.6145 14.857 45.7673 14.9209C45.9201 14.9849 46.0841 15.0178 46.2498 15.0178C46.4154 15.0178 46.5794 14.9849 46.7322 14.9209C46.8851 14.857 47.0236 14.7633 47.14 14.6454C47.2563 14.5274 47.348 14.3875 47.4097 14.2338C47.4715 14.0801 47.5021 13.9156 47.4998 13.75V11.25C47.502 11.0828 47.4708 10.9168 47.4077 10.7618C47.3447 10.6069 47.2512 10.4662 47.1329 10.3481C47.0145 10.2299 46.8736 10.1367 46.7186 10.074C46.5635 10.0113 46.3975 9.9803 46.2302 9.98291ZM52.4802 9.98291C52.1491 9.98809 51.8336 10.1244 51.6029 10.362C51.3722 10.5995 51.2452 10.9189 51.2498 11.25V13.75C51.2474 13.9156 51.278 14.0801 51.3398 14.2338C51.4016 14.3875 51.4933 14.5274 51.6096 14.6454C51.7259 14.7633 51.8645 14.857 52.0173 14.9209C52.1701 14.9849 52.3341 15.0178 52.4998 15.0178C52.6654 15.0178 52.8294 14.9849 52.9822 14.9209C53.1351 14.857 53.2736 14.7633 53.39 14.6454C53.5063 14.5274 53.598 14.3875 53.6597 14.2338C53.7215 14.0801 53.7521 13.9156 53.7498 13.75V11.25C53.752 11.0828 53.7208 10.9168 53.6577 10.7618C53.5947 10.6069 53.5012 10.4662 53.3829 10.3481C53.2645 10.2299 53.1236 10.1367 52.9686 10.074C52.8135 10.0113 52.6475 9.9803 52.4802 9.98291ZM58.7302 9.98291C58.3991 9.98809 58.0836 10.1244 57.8529 10.362C57.6222 10.5995 57.4952 10.9189 57.4998 11.25V13.75C57.4974 13.9156 57.528 14.0801 57.5898 14.2338C57.6516 14.3875 57.7433 14.5274 57.8596 14.6454C57.9759 14.7633 58.1145 14.857 58.2673 14.9209C58.4201 14.9849 58.5841 15.0178 58.7498 15.0178C58.9154 15.0178 59.0794 14.9849 59.2322 14.9209C59.3851 14.857 59.5236 14.7633 59.64 14.6454C59.7563 14.5274 59.848 14.3875 59.9097 14.2338C59.9715 14.0801 60.0021 13.9156 59.9998 13.75V11.25C60.002 11.0828 59.9708 10.9168 59.9077 10.7618C59.8447 10.6069 59.7512 10.4662 59.6329 10.3481C59.5145 10.2299 59.3736 10.1367 59.2186 10.074C59.0635 10.0113 58.8975 9.9803 58.7302 9.98291ZM64.9802 9.98291C64.6491 9.98809 64.3336 10.1244 64.1029 10.362C63.8722 10.5995 63.7452 10.9189 63.7498 11.25V13.75C63.7474 13.9156 63.778 14.0801 63.8398 14.2338C63.9016 14.3875 63.9933 14.5274 64.1096 14.6454C64.2259 14.7633 64.3645 14.857 64.5173 14.9209C64.6701 14.9849 64.8341 15.0178 64.9998 15.0178C65.1654 15.0178 65.3294 14.9849 65.4822 14.9209C65.6351 14.857 65.7736 14.7633 65.89 14.6454C66.0063 14.5274 66.098 14.3875 66.1597 14.2338C66.2215 14.0801 66.2521 13.9156 66.2498 13.75V11.25C66.252 11.0828 66.2208 10.9168 66.1577 10.7618C66.0947 10.6069 66.0012 10.4662 65.8829 10.3481C65.7645 10.2299 65.6236 10.1367 65.4686 10.074C65.3135 10.0113 65.1475 9.9803 64.9802 9.98291ZM21.2498 20C19.7385 20 18.5452 21.3943 18.7815 22.8882L19.7361 28.9453C19.7826 29.239 19.9322 29.5065 20.1582 29.6998C20.3842 29.8931 20.6716 29.9996 20.969 30H50.3098L49.719 35H31.2498C30.9182 35 30.6003 35.1317 30.3659 35.3662C30.1315 35.6006 29.9998 35.9185 29.9998 36.25V43.75C29.9998 44.0815 30.1315 44.3994 30.3659 44.6338C30.6003 44.8683 30.9182 45 31.2498 45H48.5374L47.6731 52.3242L40.1365 54.6216L33.5496 52.3901L33.1126 49.6118C33.1126 49.611 33.1126 49.6102 33.1126 49.6094C32.9215 48.4034 31.8657 47.5 30.6443 47.5H25.5833C24.0706 47.5 22.8788 48.8948 23.1126 50.3882C23.1125 50.389 23.1125 50.3898 23.1126 50.3906L24.3796 58.4375C24.5226 59.3456 25.163 60.108 26.0374 60.4028L39.2283 64.8706C39.2291 64.8706 39.2299 64.8706 39.2307 64.8706C39.4834 64.9556 39.7507 65 40.0168 65C40.2584 65 40.4989 64.9636 40.7322 64.8926L55.2878 60.459C56.2275 60.1726 56.9151 59.3498 57.0286 58.3716L60.6418 27.7954L61.2351 22.771C61.4065 21.3175 60.2352 20 58.7717 20H21.2498ZM21.2498 22.5H58.7498L58.1589 27.5L54.5481 58.0688L40.0168 62.4976L26.8479 58.0371L25.5833 50.0024V50H30.6443L31.1985 53.5254C31.2342 53.7507 31.3309 53.9619 31.4781 54.1362C31.6252 54.3105 31.8173 54.4412 32.0334 54.5142L39.7166 57.1167C39.9638 57.2004 40.231 57.2047 40.4807 57.1289L49.1819 54.4775C49.4146 54.407 49.6217 54.2701 49.7778 54.0837C49.9339 53.8972 50.0323 53.6692 50.0608 53.4277L51.1863 43.8965C51.207 43.7211 51.1902 43.5433 51.1372 43.3748C51.0842 43.2063 50.9961 43.051 50.8787 42.9191C50.7612 42.7871 50.6172 42.6816 50.456 42.6093C50.2949 42.5371 50.1202 42.4998 49.9436 42.5H32.4998V37.5H50.8298C51.1362 37.5003 51.432 37.3881 51.6611 37.1846C51.8902 36.9812 52.0366 36.7007 52.0725 36.3965L52.9587 28.8965C52.9794 28.7211 52.9627 28.5433 52.9097 28.3748C52.8566 28.2063 52.7685 28.051 52.6511 27.9191C52.5337 27.7871 52.3897 27.6816 52.2285 27.6093C52.0673 27.5371 51.8927 27.4998 51.7161 27.5H22.0383L21.2498 22.5ZM52.5071 65.3247C52.3939 65.3258 52.2814 65.3422 52.1726 65.3735L49.6726 66.0498C49.5102 66.089 49.3572 66.1604 49.2229 66.2598C49.0885 66.3591 48.9754 66.4844 48.8903 66.6282C48.8052 66.772 48.7497 66.9314 48.7273 67.097C48.7048 67.2626 48.7158 67.431 48.7595 67.5923C48.8033 67.7536 48.8789 67.9044 48.982 68.036C49.085 68.1675 49.2134 68.2771 49.3595 68.3581C49.5057 68.4392 49.6666 68.4902 49.8327 68.508C49.9989 68.5258 50.1669 68.5102 50.3269 68.4619L52.8269 67.7856C53.1225 67.7097 53.3801 67.5283 53.5512 67.2756C53.7223 67.0229 53.795 66.7163 53.7557 66.4137C53.7164 66.111 53.5677 65.8333 53.3377 65.6327C53.1077 65.4321 52.8123 65.3225 52.5071 65.3247ZM33.7205 66.9165C33.4191 66.9205 33.1293 67.0332 32.9045 67.2339C32.6797 67.4346 32.5349 67.7098 32.4969 68.0087C32.4589 68.3077 32.5301 68.6103 32.6975 68.8609C32.8649 69.1115 33.1172 69.2932 33.408 69.3726L40.0291 71.2524L45.3269 69.8169C45.4893 69.7777 45.6423 69.7063 45.7766 69.6069C45.911 69.5076 46.0241 69.3823 46.1092 69.2385C46.1943 69.0947 46.2498 68.9353 46.2722 68.7697C46.2947 68.6041 46.2837 68.4357 46.24 68.2744C46.1962 68.1131 46.1206 67.9623 46.0175 67.8307C45.9145 67.6992 45.7861 67.5896 45.64 67.5086C45.4938 67.4275 45.3329 67.3765 45.1668 67.3587C45.0006 67.3409 44.8326 67.3566 44.6726 67.4048L40.0461 68.6597L34.0916 66.9678C33.9711 66.9321 33.846 66.9149 33.7205 66.9165Z" fill="black"/>
</svg>
