<svg width="80" height="80" viewBox="0 0 80 80" fill="none" xmlns="http://www.w3.org/2000/svg">
<path d="M22.3999 6.40002C13.5818 6.40002 6.3999 13.5819 6.3999 22.4V57.6C6.3999 66.4182 13.5818 73.6 22.3999 73.6H57.5999C66.418 73.6 73.5999 66.4182 73.5999 57.6V22.4C73.5999 13.5819 66.418 6.40002 57.5999 6.40002H22.3999ZM22.3999 9.60002H57.5999C64.689 9.60002 70.3999 15.311 70.3999 22.4V57.6C70.3999 64.6891 64.689 70.4 57.5999 70.4H22.3999C15.3108 70.4 9.5999 64.6891 9.5999 57.6V22.4C9.5999 15.311 15.3108 9.60002 22.3999 9.60002ZM20.7999 24C18.1679 24 15.9999 26.1681 15.9999 28.8V51.2C15.9999 53.832 18.1679 56 20.7999 56H59.1999C61.8319 56 63.9999 53.832 63.9999 51.2V28.8C63.9999 26.1681 61.8319 24 59.1999 24H20.7999ZM21.4624 27.2H58.5343L44.2843 41.4281C41.8958 43.8128 38.0748 43.8125 35.6874 41.425L21.4624 27.2ZM60.7999 29.4594V50.5406L50.2436 40L60.7999 29.4594ZM19.1999 29.4625L29.7374 40L19.1999 50.5375V29.4625ZM47.9812 42.2594L58.5374 52.8H21.4624L31.9999 42.2625L33.4249 43.6875C37.0343 47.2969 42.9321 47.2995 46.5437 43.6938L47.9812 42.2594Z" fill="black"/>
</svg>
