<svg width="80" height="80" viewBox="0 0 80 80" fill="none" xmlns="http://www.w3.org/2000/svg">
<path d="M40.0002 3.19995C19.6983 3.19995 3.2002 19.6981 3.2002 40C3.2002 60.3018 19.6983 76.7999 40.0002 76.7999C60.3021 76.7999 76.8002 60.3018 76.8002 40C76.8002 19.6981 60.3021 3.19995 40.0002 3.19995ZM40.0002 6.39995C58.5719 6.39995 73.6002 21.4282 73.6002 40C73.6002 40.1141 73.592 40.2267 73.5908 40.3406C72.5674 40.2461 71.385 40.1564 69.8814 40.1031C67.7555 40.0277 65.0758 40.0495 62.0377 40.2C62.1504 39.4154 62.2293 38.6198 62.2314 37.8031C62.3864 34.8069 61.3802 32.0039 59.7439 29.5281C60.1393 28.1621 60.603 26.4243 60.7189 24.4531C60.8511 22.2062 60.6572 19.7148 58.8533 18.0312L58.3908 17.6H57.7596C53.4667 17.6 50.5282 19.3971 48.7314 20.8218C46.137 19.8176 43.2197 19.2 40.0002 19.2C36.7624 19.2 33.817 19.8262 31.1158 20.8281C29.3201 19.4027 26.3791 17.6 22.0814 17.6H21.4533L20.9908 18.0281C19.2337 19.6597 19.0718 22.0828 19.1814 24.3187C19.2781 26.2904 19.715 28.0834 20.1033 29.5156C18.4394 32.0397 17.4408 34.9152 17.4408 37.7593C17.4408 38.5779 17.5169 39.3761 17.6283 40.1625C14.7391 40.0284 12.1636 40.0026 10.1189 40.075C8.61542 40.1281 7.4329 40.2171 6.40957 40.3125C6.40862 40.2079 6.4002 40.1047 6.4002 40C6.4002 21.4282 21.4285 6.39995 40.0002 6.39995ZM23.0346 21.0093C26.2627 21.3152 28.6914 22.7567 29.8158 23.7562L30.5658 24.4187L31.4908 24.0406C34.0211 22.9987 36.8434 22.4 40.0002 22.4C43.157 22.4 45.98 23.0017 48.3189 24.025L49.2564 24.4375L50.0221 23.7562C51.1469 22.7564 53.5797 21.3144 56.8096 21.0093C57.239 21.7213 57.6122 22.7338 57.5221 24.2656C57.4142 26.0987 56.9239 28.0954 56.5533 29.2812L56.3127 30.0531L56.7908 30.7062C58.374 32.8651 59.1812 35.2015 59.0439 37.6718L59.0408 37.7156V37.7593C59.0408 41.7521 57.603 44.9477 54.5408 47.3156C51.4787 49.6835 46.6445 51.2 39.8408 51.2C33.0372 51.2 28.1999 49.6835 25.1377 47.3156C22.0755 44.9477 20.6408 41.7521 20.6408 37.7593C20.6408 35.4158 21.4871 32.8377 23.0502 30.7062L23.5189 30.0687L23.2939 29.3093C22.9232 28.0487 22.4687 26.0065 22.3783 24.1625C22.3031 22.6287 22.6661 21.6592 23.0346 21.0093ZM14.2158 41.6343C15.3465 41.6488 16.6425 41.7098 17.9408 41.775C18.0649 42.2738 18.2063 42.7646 18.3783 43.2437C13.0866 43.3553 9.12776 43.8874 6.6877 44.3437C6.58453 43.5431 6.50235 42.736 6.45645 41.9187C8.25972 41.7476 10.8018 41.5907 14.2158 41.6343ZM65.7846 41.6593C69.1962 41.616 71.7374 41.773 73.5408 41.9437C73.495 42.7493 73.4142 43.545 73.3127 44.3343C70.7854 43.8707 66.7197 43.3387 61.2908 43.2531C61.4593 42.7834 61.5996 42.3011 61.7221 41.8125C63.1543 41.7357 64.5515 41.675 65.7846 41.6593ZM19.0596 44.8312C20.0144 46.7445 21.3786 48.4528 23.1814 49.8468C25.6463 51.7528 28.8508 53.0845 32.7627 53.7968C32.2509 54.3227 31.7854 54.9001 31.3721 55.5093L31.2752 55.425C31.284 55.4149 30.4798 55.8174 29.2783 55.925C28.0768 56.0326 26.5948 56 25.2814 56C23.3214 56 22.4581 55.0739 21.0783 53.3875C20.3142 52.3576 19.3828 51.5237 18.4783 50.8906C17.5522 50.2423 16.7622 49.7848 15.7846 49.6218L15.6533 49.6H15.5189C14.7723 49.6 14.0498 49.654 13.3752 50.425C13.0379 50.8104 12.8054 51.524 12.9564 52.1281C13.1075 52.7321 13.4896 53.1033 13.8314 53.3312C16.0182 54.789 16.4047 57.6744 17.7752 60.2406C19.0551 62.7909 21.8173 64 24.6408 64H28.8002V71.6843C17.5487 67.7128 9.06368 57.9273 6.93145 45.925C9.38089 45.4636 13.4827 44.9089 19.0596 44.8312ZM60.6127 44.8437C66.3131 44.8925 70.5299 45.4464 73.0721 45.9156C70.9427 57.9224 62.4547 67.7117 51.2002 71.6843V63.3593C51.2002 60.824 50.3676 58.0283 48.9189 55.6968C48.4791 54.989 47.9617 54.3195 47.3846 53.7187C51.0889 52.9869 54.132 51.6781 56.5002 49.8468C58.2991 48.4558 59.6603 46.7526 60.6127 44.8437ZM37.9189 54.5593H42.4002C43.7007 54.5593 45.0889 55.5958 46.2002 57.3843C47.3115 59.1729 48.0002 61.5746 48.0002 63.3593V72.6375C45.4361 73.2627 42.7583 73.6 40.0002 73.6C37.2421 73.6 34.5643 73.2627 32.0002 72.6375V63.3593C32.0002 61.6141 32.7487 59.218 33.9346 57.4218C35.1204 55.6256 36.6184 54.5593 37.9189 54.5593ZM19.6939 56.45C21.0792 57.8868 22.7562 59.2 25.2814 59.2C26.5281 59.2 28.0842 59.2449 29.5627 59.1125C29.568 59.112 29.5731 59.1098 29.5783 59.1093C29.3835 59.6693 29.2382 60.2328 29.1158 60.8H24.6408C22.6675 60.8 21.2734 60.087 20.6314 58.8031L20.6189 58.7812L20.6096 58.7625C20.3465 58.2739 20.0012 57.2969 19.6939 56.45Z" fill="black"/>
</svg>
