<svg width="80" height="80" viewBox="0 0 80 80" fill="none" xmlns="http://www.w3.org/2000/svg">
<path d="M8.45024 3.20001C7.62524 3.35001 7.05649 4.11876 7.15024 4.95001L12.8002 68.05C12.8752 68.6938 13.3315 69.225 13.9502 69.4L39.5502 76.75C39.844 76.8375 40.1565 76.8375 40.4502 76.75L66.0502 69.4C66.669 69.225 67.1252 68.6938 67.2002 68.05L72.8502 4.95001C72.894 4.50001 72.744 4.05626 72.4377 3.71876C72.1315 3.38751 71.7002 3.20001 71.2502 3.20001H8.75024C8.70024 3.20001 8.65024 3.20001 8.60024 3.20001C8.55024 3.20001 8.50024 3.20001 8.45024 3.20001ZM10.5002 6.40001H69.5002L64.1502 66.65L40.0002 73.5L15.8502 66.65L10.5002 6.40001ZM20.0502 16.1C19.2252 16.25 18.6565 17.0188 18.7502 17.85L20.9002 41.5C20.9502 42.325 21.6252 42.975 22.4502 43H48.0002L47.3002 50.35L40.0502 51.9L32.7002 50.35L32.4502 47.75C32.4002 46.9063 31.694 46.25 30.8502 46.25H23.0502C22.6002 46.25 22.169 46.4375 21.8627 46.7688C21.5565 47.1063 21.4065 47.55 21.4502 48L22.3502 57.8C22.4002 58.4438 22.8315 59 23.4502 59.2L39.3502 64.05L39.5502 64.1C39.844 64.1875 40.1565 64.1875 40.4502 64.1L56.5502 59.2C57.1877 59.0188 57.644 58.4625 57.7002 57.8L59.8002 33.75C59.844 33.3063 59.7002 32.8688 59.4065 32.5375C59.1127 32.2063 58.694 32.0125 58.2502 32H31.0002L30.6002 27.05H58.9502C59.7815 27.0563 60.4752 26.425 60.5502 25.6L61.2502 17.85C61.294 17.4 61.144 16.9563 60.8377 16.6188C60.5315 16.2875 60.1002 16.1 59.6502 16.1H20.3502C20.2502 16.0875 20.1502 16.0875 20.0502 16.1ZM22.1002 19.3H57.9002L57.5002 23.85H28.8502C28.4002 23.85 27.969 24.0375 27.6627 24.3688C27.3565 24.7063 27.2065 25.15 27.2502 25.6L28.0002 33.75C28.0752 34.5563 28.744 35.1813 29.5502 35.2H56.5002L54.6002 56.45L40.0002 60.85L25.4002 56.45L24.8002 49.45H29.4002L29.6002 51.8C29.6502 52.5063 30.1565 53.0938 30.8502 53.25L39.7502 55.1C39.9627 55.1438 40.1877 55.1438 40.4002 55.1L49.1502 53.25C49.844 53.0938 50.3502 52.5063 50.4002 51.8L51.3502 41.5C51.3752 41.0563 51.219 40.625 50.919 40.3063C50.6127 39.9813 50.194 39.8 49.7502 39.8H23.9002L22.1002 19.3Z" fill="black"/>
</svg>
