<svg width="80" height="80" viewBox="0 0 80 80" fill="none" xmlns="http://www.w3.org/2000/svg">
<path d="M8.74376 3.20001C8.52152 3.20001 8.30171 3.2463 8.09834 3.33593C7.89497 3.42557 7.71251 3.55658 7.56257 3.72063C7.41263 3.88468 7.29851 4.07816 7.22748 4.28875C7.15645 4.49934 7.13007 4.72241 7.15001 4.94376L12.7813 68.025C12.8098 68.3471 12.9353 68.653 13.1411 68.9023C13.347 69.1517 13.6236 69.3328 13.9344 69.4219L39.55 76.7375C39.837 76.8194 40.1412 76.8194 40.4281 76.7375L66.0688 69.4219C66.3796 69.3328 66.6562 69.1517 66.862 68.9023C67.0678 68.653 67.1933 68.3471 67.2219 68.025L72.85 4.94376C72.87 4.72241 72.8436 4.49934 72.7725 4.28875C72.7015 4.07816 72.5874 3.88468 72.4374 3.72063C72.2875 3.55658 72.105 3.42557 71.9017 3.33593C71.6983 3.2463 71.4785 3.20001 71.2563 3.20001H8.74376ZM10.4938 6.40001H69.5063L64.1344 66.6469L39.9906 73.5375L15.8719 66.6469L10.4938 6.40001ZM30.4 16C29.9757 16.0001 29.5687 16.1686 29.2687 16.4687C28.9686 16.7687 28.8001 17.1757 28.8 17.6V47.4063L19.6281 44.8656C19.3906 44.7997 19.141 44.7895 18.8988 44.836C18.6567 44.8824 18.4286 44.9842 18.2322 45.1333C18.0359 45.2824 17.8767 45.4749 17.767 45.6957C17.6574 45.9165 17.6002 46.1597 17.6 46.4063V54.3188C17.6003 54.6683 17.715 55.0082 17.9266 55.2864C18.1382 55.5646 18.4351 55.7658 18.7719 55.8594L36.3719 60.7406C36.6094 60.8066 36.859 60.8167 37.1012 60.7703C37.3433 60.7239 37.5715 60.6221 37.7678 60.473C37.9641 60.3239 38.1233 60.1314 38.233 59.9105C38.3427 59.6897 38.3998 59.4466 38.4 59.2V17.6C38.4 17.1757 38.2314 16.7687 37.9313 16.4687C37.6313 16.1686 37.2243 16.0001 36.8 16H30.4ZM43.2 16C42.7757 16.0001 42.3687 16.1686 42.0687 16.4687C41.7686 16.7687 41.6 17.1757 41.6 17.6V44.8C41.5998 45.0332 41.6506 45.2637 41.7489 45.4752C41.8471 45.6868 41.9904 45.8743 42.1688 46.0246C42.3471 46.1749 42.5561 46.2845 42.7812 46.3456C43.0063 46.4066 43.242 46.4177 43.4719 46.3781L52.6688 44.7938L52.4781 47.6281L42.775 50.2969C42.4376 50.3899 42.14 50.5909 41.9278 50.8691C41.7156 51.1474 41.6004 51.4876 41.6 51.8375V59.2C41.5999 59.4465 41.6566 59.6896 41.7659 59.9106C41.8752 60.1315 42.034 60.3242 42.23 60.4736C42.4261 60.623 42.6539 60.7251 42.8959 60.772C43.1379 60.8189 43.3874 60.8092 43.625 60.7438L59.625 56.3438C59.9401 56.2568 60.2211 56.0754 60.43 55.824C60.639 55.5726 60.7659 55.2632 60.7938 54.9375L62.4813 35.3375C62.502 35.0977 62.4683 34.8563 62.3827 34.6313C62.2972 34.4063 62.1619 34.2035 61.9871 34.038C61.8123 33.8725 61.6024 33.7485 61.3731 33.6754C61.1437 33.6023 60.9008 33.5819 60.6625 33.6156L51.2 34.9563V25.6H61.8469C62.2474 25.5999 62.6332 25.4496 62.9283 25.1788C63.2234 24.9081 63.4062 24.5365 63.4406 24.1375L63.9938 17.7375C64.0128 17.5167 63.9857 17.2943 63.9143 17.0844C63.8428 16.8746 63.7286 16.6819 63.5787 16.5185C63.4289 16.3552 63.2467 16.2247 63.0438 16.1355C62.8409 16.0462 62.6217 16.0001 62.4 16H43.2ZM32 19.2H35.2V57.0969L20.8 53.1031V48.5094L29.9719 51.0531C30.2095 51.1191 30.459 51.1292 30.7012 51.0828C30.9433 51.0364 31.1715 50.9346 31.3678 50.7855C31.5641 50.6363 31.7233 50.4439 31.833 50.223C31.9427 50.0022 31.9998 49.7591 32 49.5125V19.2ZM44.8 19.2H60.6563L60.3781 22.4H49.6C49.1757 22.4001 48.7687 22.5686 48.4687 22.8687C48.1686 23.1687 48 23.5757 48 24V36.8C48 37.0292 48.0492 37.2556 48.1443 37.4641C48.2394 37.6726 48.3781 37.8582 48.5512 38.0084C48.7242 38.1587 48.9275 38.27 49.1472 38.3348C49.367 38.3997 49.5981 38.4166 49.825 38.3844L59.1219 37.0656L57.7 53.5531L44.8 57.1V53.0594L54.425 50.4125C54.745 50.3245 55.0296 50.1391 55.2396 49.8821C55.4495 49.6251 55.5744 49.3092 55.5969 48.9781L55.9969 42.9781C56.0132 42.7364 55.9743 42.4942 55.8834 42.2697C55.7924 42.0451 55.6516 41.8442 55.4717 41.682C55.2917 41.5198 55.0773 41.4006 54.8446 41.3333C54.6118 41.2661 54.3669 41.2526 54.1281 41.2938L44.8 42.9V19.2Z" fill="black"/>
</svg>
