<svg width="80" height="80" viewBox="0 0 80 80" fill="none" xmlns="http://www.w3.org/2000/svg">
<path d="M14.3999 6.40002C10.0007 6.40002 6.3999 10.0008 6.3999 14.4V65.6C6.3999 69.9992 10.0007 73.6 14.3999 73.6H65.5999C69.9991 73.6 73.5999 69.9992 73.5999 65.6V14.4C73.5999 10.0008 69.9991 6.40002 65.5999 6.40002H14.3999ZM14.3999 9.60002H65.5999C68.2695 9.60002 70.3999 11.7305 70.3999 14.4V65.6C70.3999 68.2696 68.2695 70.4 65.5999 70.4H14.3999C11.7303 70.4 9.5999 68.2696 9.5999 65.6V14.4C9.5999 11.7305 11.7303 9.60002 14.3999 9.60002ZM22.3999 17.6188C20.6475 17.6188 19.0707 18.1426 17.903 19.125C16.7354 20.1075 16.0187 21.5752 16.0187 23.1469C16.0187 26.1344 18.61 28.4634 21.9062 28.6938L21.9124 28.6969C22.0695 28.7504 22.234 28.7789 22.3999 28.7813C26.0367 28.7813 28.7812 26.2338 28.7812 23.1469C28.7809 23.1187 28.7798 23.0906 28.778 23.0625C28.6152 20.0222 25.9046 17.6188 22.3999 17.6188ZM22.3999 20.7813C24.6275 20.7813 25.5071 21.7761 25.603 23.1875C25.5836 24.5575 24.736 25.6188 22.3999 25.6188C20.1833 25.6188 19.1812 24.4836 19.1812 23.1469C19.1812 22.4786 19.425 21.9749 19.9374 21.5438C20.4498 21.1126 21.2723 20.7813 22.3999 20.7813ZM17.5999 30.4C17.1756 30.4001 16.7686 30.5687 16.4686 30.8687C16.1685 31.1687 15.9999 31.5757 15.9999 32V62.4C15.9999 62.8244 16.1685 63.2313 16.4686 63.5313C16.7686 63.8314 17.1756 64 17.5999 64H27.1999C27.6242 64 28.0312 63.8314 28.3312 63.5313C28.6313 63.2313 28.7999 62.8244 28.7999 62.4V53.0156V32C28.7999 31.5757 28.6313 31.1687 28.3312 30.8687C28.0312 30.5687 27.6242 30.4001 27.1999 30.4H17.5999ZM31.9999 30.4C31.5756 30.4001 31.1686 30.5687 30.8686 30.8687C30.5685 31.1687 30.3999 31.5757 30.3999 32V62.4C30.3999 62.8244 30.5685 63.2313 30.8686 63.5313C31.1686 63.8314 31.5756 64 31.9999 64H41.5999C42.0242 64 42.4312 63.8314 42.7312 63.5313C43.0313 63.2313 43.1999 62.8244 43.1999 62.4V46.4C43.1999 45.0726 43.5621 43.7521 44.1999 42.8875C44.8377 42.023 45.6422 41.5041 47.1718 41.5313C48.749 41.5584 49.5839 42.0987 50.2155 42.9469C50.8471 43.7951 51.1999 45.0667 51.1999 46.4V62.4C51.1999 62.8244 51.3685 63.2313 51.6686 63.5313C51.9686 63.8314 52.3756 64 52.7999 64H62.3999C62.8242 64 63.2312 63.8314 63.5312 63.5313C63.8313 63.2313 63.9999 62.8244 63.9999 62.4V45.2188C63.9999 40.4803 62.5964 36.7269 60.1905 34.1875C57.7847 31.6481 54.4386 30.4 50.8999 30.4C47.5367 30.4 44.9773 31.5278 43.1999 32.6781V32C43.1999 31.5757 43.0313 31.1687 42.7312 30.8687C42.4312 30.5687 42.0242 30.4001 41.5999 30.4H31.9999ZM19.1999 33.6H25.5999V53.0156V60.8H19.1999V33.6ZM33.5999 33.6H39.9999V36.0969C40 36.4324 40.1055 36.7594 40.3016 37.0316C40.4977 37.3038 40.7744 37.5076 41.0926 37.614C41.4107 37.7204 41.7543 37.7241 42.0747 37.6246C42.3951 37.525 42.6761 37.3273 42.878 37.0594C42.878 37.0594 45.3906 33.6 50.8999 33.6C53.7052 33.6 56.1109 34.5322 57.8686 36.3875C59.6264 38.2429 60.7999 41.1012 60.7999 45.2188V60.8H54.3999V46.4C54.3999 44.5334 53.9526 42.6034 52.7843 41.0344C51.6159 39.4654 49.6508 38.3729 47.228 38.3313C44.7928 38.288 42.7959 39.4032 41.6249 40.9906C40.4539 42.5781 39.9999 44.5275 39.9999 46.4V60.8H33.5999V33.6Z" fill="black"/>
</svg>
