<svg width="174" height="29" viewBox="0 0 174 29" fill="none" xmlns="http://www.w3.org/2000/svg">
<path d="M9.22 26.53C10.5733 26.53 11.6583 26.18 12.475 25.48C13.315 24.78 13.735 23.8117 13.735 22.575C13.735 21.5717 13.4783 20.72 12.965 20.02C12.4517 19.32 11.81 18.7483 11.04 18.305C10.2933 17.8617 9.26667 17.3483 7.96 16.765C6.46667 16.0883 5.265 15.47 4.355 14.91C3.46833 14.35 2.71 13.6033 2.08 12.67C1.45 11.7367 1.135 10.57 1.135 9.17C1.135 7.98 1.415 6.87167 1.975 5.845C2.55833 4.795 3.42167 3.955 4.565 3.325C5.70833 2.695 7.10833 2.38 8.765 2.38C10.2817 2.38 11.635 2.60166 12.825 3.045C14.0383 3.465 14.9717 4.07167 15.625 4.865C16.3017 5.635 16.64 6.52167 16.64 7.525C16.64 8.715 16.2783 9.695 15.555 10.465C14.855 11.235 13.9683 11.62 12.895 11.62C12.405 11.62 12.16 11.48 12.16 11.2C12.16 11.13 12.2533 10.9317 12.44 10.605C12.65 10.2783 12.825 9.91667 12.965 9.52C13.1283 9.1 13.21 8.59833 13.21 8.015C13.21 6.91833 12.8017 6.03167 11.985 5.355C11.1683 4.67833 10.095 4.34 8.765 4.34C7.38833 4.34 6.32667 4.73667 5.58 5.53C4.83333 6.3 4.46 7.245 4.46 8.365C4.46 9.22833 4.705 9.975 5.195 10.605C5.685 11.235 6.29167 11.76 7.015 12.18C7.73833 12.6 8.74167 13.1017 10.025 13.685C11.565 14.3617 12.8133 15.0033 13.77 15.61C14.75 16.1933 15.5783 16.9867 16.255 17.99C16.9317 18.97 17.27 20.195 17.27 21.665C17.27 23.7417 16.57 25.3983 15.17 26.635C13.7933 27.8717 11.81 28.49 9.22 28.49C7.54 28.49 6.04667 28.2567 4.74 27.79C3.43333 27.3 2.40667 26.635 1.66 25.795C0.936667 24.9317 0.575 23.9517 0.575 22.855C0.575 21.665 0.948333 20.685 1.695 19.915C2.465 19.145 3.42167 18.76 4.565 18.76C4.82167 18.76 5.00833 18.8067 5.125 18.9C5.24167 18.97 5.3 19.0633 5.3 19.18C5.3 19.25 5.195 19.4483 4.985 19.775C4.775 20.0783 4.58833 20.44 4.425 20.86C4.26167 21.28 4.18 21.7817 4.18 22.365C4.18 23.6017 4.64667 24.605 5.58 25.375C6.51333 26.145 7.72667 26.53 9.22 26.53ZM33.0643 24.78C32.1076 26.1333 31.1276 27.09 30.1243 27.65C29.121 28.21 28.036 28.49 26.8693 28.49C25.7493 28.49 24.711 28.175 23.7543 27.545C22.7976 26.8917 22.0276 25.9233 21.4443 24.64C20.8843 23.3567 20.6043 21.805 20.6043 19.985C20.6043 17.9783 20.966 16.24 21.6893 14.77C22.436 13.2767 23.486 12.1333 24.8393 11.34C26.216 10.5467 27.826 10.15 29.6693 10.15C30.5793 10.15 31.8626 10.3017 33.5193 10.605C34.9193 10.8383 35.9693 10.9783 36.6693 11.025L37.0543 11.48L36.6343 12.11C36.471 12.3433 36.3543 12.565 36.2843 12.775C36.2143 12.9617 36.1793 13.195 36.1793 13.475V24.92C36.1793 25.6433 36.5293 26.005 37.2293 26.005C37.8126 26.005 38.396 25.795 38.9793 25.375L39.6443 26.285C39.0376 26.9617 38.3843 27.4983 37.6843 27.895C36.9843 28.2917 36.3426 28.49 35.7593 28.49C34.8026 28.49 34.1143 28.1983 33.6943 27.615C33.2743 27.0317 33.0643 26.0867 33.0643 24.78ZM24.2793 19.32C24.2793 21.5367 24.6526 23.17 25.3993 24.22C26.1693 25.27 27.126 25.795 28.2693 25.795C29.2026 25.795 30.0776 25.5383 30.8943 25.025C31.711 24.4883 32.4343 23.6833 33.0643 22.61V13.16C31.991 12.4367 30.8476 12.075 29.6343 12.075C27.931 12.075 26.6126 12.7167 25.6793 14C24.746 15.26 24.2793 17.0333 24.2793 19.32ZM43.9323 4.41C43.9323 4.13 43.874 3.93167 43.7573 3.815C43.664 3.69833 43.489 3.64 43.2323 3.64H41.6923L41.3773 2.73C42.054 2.12333 42.824 1.62167 43.6873 1.225C44.574 0.828331 45.344 0.629998 45.9973 0.629998C46.324 0.629998 46.5923 0.734998 46.8023 0.944998C47.0123 1.155 47.1173 1.42333 47.1173 1.75V15.365C47.724 13.8483 48.634 12.6 49.8473 11.62C51.0607 10.64 52.3323 10.15 53.6623 10.15C55.3657 10.15 56.5673 10.6517 57.2673 11.655C57.9907 12.6583 58.3523 14.28 58.3523 16.52V24.99C58.3523 25.7833 58.7023 26.18 59.4023 26.18C59.9857 26.18 60.569 25.935 61.1523 25.445L61.8173 26.355C61.2107 27.0317 60.5573 27.5683 59.8573 27.965C59.1573 28.3617 58.504 28.56 57.8973 28.56C56.9407 28.56 56.2523 28.2683 55.8323 27.685C55.4123 27.1017 55.2023 26.1567 55.2023 24.85V16.52C55.2023 15.2833 54.969 14.3733 54.5023 13.79C54.059 13.1833 53.289 12.88 52.1923 12.88C51.189 12.88 50.3023 13.2767 49.5323 14.07C48.7857 14.8633 48.1907 15.9833 47.7473 17.43C47.3273 18.8767 47.1173 20.5333 47.1173 22.4C47.1173 23.4967 47.199 24.3717 47.3623 25.025C47.5257 25.6783 47.8173 26.3083 48.2373 26.915L48.6573 27.475L48.2373 28H42.1123L41.7273 26.915L42.4623 26.74C43.0457 26.6 43.4307 26.355 43.6173 26.005C43.8273 25.6317 43.9323 25.0017 43.9323 24.115V4.41ZM69.8559 15.365C70.2525 13.8017 70.8592 12.5417 71.6759 11.585C72.5159 10.6283 73.4259 10.15 74.4059 10.15C75.3859 10.15 76.1909 10.4767 76.8209 11.13C77.4742 11.76 77.8009 12.6233 77.8009 13.72C77.8009 14.6067 77.4742 15.3533 76.8209 15.96C76.1675 16.5667 75.3509 16.87 74.3709 16.87C73.9275 16.87 73.7059 16.7417 73.7059 16.485C73.7059 16.415 73.7992 16.24 73.9859 15.96C74.1959 15.68 74.3592 15.3883 74.4759 15.085C74.6159 14.7817 74.6859 14.4433 74.6859 14.07C74.6859 13.65 74.5692 13.3233 74.3359 13.09C74.1259 12.8333 73.8575 12.705 73.5309 12.705C72.9709 12.705 72.3875 13.0433 71.7809 13.72C71.1975 14.3733 70.6959 15.4467 70.2759 16.94C69.8559 18.41 69.6459 20.2767 69.6459 22.54C69.6459 23.59 69.7275 24.4417 69.8909 25.095C70.0542 25.725 70.3459 26.3317 70.7659 26.915L71.1859 27.475L70.7659 28H64.6409L64.2559 26.915L64.9909 26.74C65.5742 26.6 65.9592 26.355 66.1459 26.005C66.3559 25.6317 66.4609 25.0017 66.4609 24.115V14.28C66.4609 14 66.4025 13.8017 66.2859 13.685C66.1925 13.5683 66.0175 13.51 65.7609 13.51H64.2209L63.9059 12.6C64.5825 11.9933 65.3525 11.4917 66.2159 11.095C67.1025 10.6983 67.8725 10.5 68.5259 10.5C68.8525 10.5 69.1209 10.605 69.3309 10.815C69.5409 11.025 69.6459 11.2933 69.6459 11.62V15.365H69.8559ZM91.8192 24.78C90.8625 26.1333 89.8825 27.09 88.8792 27.65C87.8758 28.21 86.7908 28.49 85.6242 28.49C84.5042 28.49 83.4658 28.175 82.5092 27.545C81.5525 26.8917 80.7825 25.9233 80.1992 24.64C79.6392 23.3567 79.3592 21.805 79.3592 19.985C79.3592 17.9783 79.7208 16.24 80.4442 14.77C81.1908 13.2767 82.2408 12.1333 83.5942 11.34C84.9708 10.5467 86.5808 10.15 88.4242 10.15C89.3342 10.15 90.6175 10.3017 92.2742 10.605C93.6742 10.8383 94.7242 10.9783 95.4242 11.025L95.8092 11.48L95.3892 12.11C95.2258 12.3433 95.1092 12.565 95.0392 12.775C94.9692 12.9617 94.9342 13.195 94.9342 13.475V24.92C94.9342 25.6433 95.2842 26.005 95.9842 26.005C96.5675 26.005 97.1508 25.795 97.7342 25.375L98.3992 26.285C97.7925 26.9617 97.1392 27.4983 96.4392 27.895C95.7392 28.2917 95.0975 28.49 94.5142 28.49C93.5575 28.49 92.8692 28.1983 92.4492 27.615C92.0292 27.0317 91.8192 26.0867 91.8192 24.78ZM83.0342 19.32C83.0342 21.5367 83.4075 23.17 84.1542 24.22C84.9242 25.27 85.8808 25.795 87.0242 25.795C87.9575 25.795 88.8325 25.5383 89.6492 25.025C90.4658 24.4883 91.1892 23.6833 91.8192 22.61V13.16C90.7458 12.4367 89.6025 12.075 88.3892 12.075C86.6858 12.075 85.3675 12.7167 84.4342 14C83.5008 15.26 83.0342 17.0333 83.0342 19.32ZM105.487 24.92C105.487 25.7133 105.837 26.11 106.537 26.11C107.121 26.11 107.704 25.865 108.287 25.375L108.952 26.285C108.346 26.9617 107.692 27.4983 106.992 27.895C106.292 28.2917 105.639 28.49 105.032 28.49C104.076 28.49 103.387 28.1983 102.967 27.615C102.547 27.0317 102.337 26.0867 102.337 24.78V4.41C102.337 4.13 102.279 3.93167 102.162 3.815C102.069 3.69833 101.894 3.64 101.637 3.64H100.097L99.7822 2.73C100.459 2.12333 101.229 1.62167 102.092 1.225C102.956 0.828331 103.726 0.629998 104.402 0.629998C104.729 0.629998 104.997 0.734998 105.207 0.944998C105.417 1.155 105.522 1.42333 105.522 1.75L105.487 24.92ZM123.504 24.78C122.547 26.1333 121.567 27.09 120.564 27.65C119.56 28.21 118.475 28.49 117.309 28.49C116.189 28.49 115.15 28.175 114.194 27.545C113.237 26.8917 112.467 25.9233 111.884 24.64C111.324 23.3567 111.044 21.805 111.044 19.985C111.044 17.9783 111.405 16.24 112.129 14.77C112.875 13.2767 113.925 12.1333 115.279 11.34C116.655 10.5467 118.265 10.15 120.109 10.15C121.019 10.15 122.302 10.3017 123.959 10.605C125.359 10.8383 126.409 10.9783 127.109 11.025L127.494 11.48L127.074 12.11C126.91 12.3433 126.794 12.565 126.724 12.775C126.654 12.9617 126.619 13.195 126.619 13.475V24.92C126.619 25.6433 126.969 26.005 127.669 26.005C128.252 26.005 128.835 25.795 129.419 25.375L130.084 26.285C129.477 26.9617 128.824 27.4983 128.124 27.895C127.424 28.2917 126.782 28.49 126.199 28.49C125.242 28.49 124.554 28.1983 124.134 27.615C123.714 27.0317 123.504 26.0867 123.504 24.78ZM114.719 19.32C114.719 21.5367 115.092 23.17 115.839 24.22C116.609 25.27 117.565 25.795 118.709 25.795C119.642 25.795 120.517 25.5383 121.334 25.025C122.15 24.4883 122.874 23.6833 123.504 22.61V13.16C122.43 12.4367 121.287 12.075 120.074 12.075C118.37 12.075 117.052 12.7167 116.119 14C115.185 15.26 114.719 17.0333 114.719 19.32ZM137.732 22.4C137.732 23.4967 137.813 24.3717 137.977 25.025C138.14 25.6783 138.432 26.3083 138.852 26.915L139.272 27.475L138.852 28H132.727L132.342 26.915L133.077 26.74C133.66 26.6 134.045 26.355 134.232 26.005C134.442 25.6317 134.547 25.0017 134.547 24.115V14.28C134.547 14 134.488 13.8017 134.372 13.685C134.278 13.5683 134.103 13.51 133.847 13.51H132.307L131.992 12.6C132.668 11.9933 133.438 11.4917 134.302 11.095C135.188 10.6983 135.958 10.5 136.612 10.5C136.938 10.5 137.207 10.605 137.417 10.815C137.627 11.025 137.732 11.2933 137.732 11.62V15.365C138.338 13.8483 139.248 12.6 140.462 11.62C141.675 10.64 142.947 10.15 144.277 10.15C145.91 10.15 147.1 10.6517 147.847 11.655C148.593 12.6583 148.967 14.2567 148.967 16.45V24.92C148.967 25.7133 149.317 26.11 150.017 26.11C150.553 26.11 151.137 25.865 151.767 25.375L152.432 26.285C151.825 26.9617 151.172 27.4983 150.472 27.895C149.772 28.2917 149.118 28.49 148.512 28.49C147.555 28.49 146.867 28.1983 146.447 27.615C146.027 27.0317 145.817 26.0867 145.817 24.78V16.45C145.817 14.07 144.813 12.88 142.807 12.88C141.803 12.88 140.917 13.2767 140.147 14.07C139.4 14.8633 138.805 15.9833 138.362 17.43C137.942 18.8767 137.732 20.5333 137.732 22.4ZM170.266 24.92C170.266 25.6433 170.616 26.005 171.316 26.005C171.9 26.005 172.483 25.795 173.066 25.375L173.731 26.285C173.125 26.9617 172.471 27.4983 171.771 27.895C171.071 28.2917 170.43 28.49 169.846 28.49C168.89 28.49 168.201 28.1983 167.781 27.615C167.361 27.0317 167.151 26.0867 167.151 24.78C166.195 26.1333 165.215 27.09 164.211 27.65C163.208 28.21 162.123 28.49 160.956 28.49C159.836 28.49 158.798 28.175 157.841 27.545C156.885 26.8917 156.115 25.9233 155.531 24.64C154.971 23.3567 154.691 21.805 154.691 19.985C154.691 17.9783 155.053 16.24 155.776 14.77C156.523 13.2767 157.573 12.1333 158.926 11.34C160.303 10.5467 161.913 10.15 163.756 10.15C164.97 10.15 166.078 10.3017 167.081 10.605V4.41C167.081 4.13 167.023 3.93167 166.906 3.815C166.813 3.69833 166.638 3.64 166.381 3.64H164.841L164.526 2.73C165.203 2.12333 165.973 1.62167 166.836 1.225C167.723 0.828331 168.493 0.629998 169.146 0.629998C169.473 0.629998 169.741 0.734998 169.951 0.944998C170.161 1.155 170.266 1.42333 170.266 1.75V24.92ZM158.366 19.32C158.366 21.5367 158.74 23.17 159.486 24.22C160.256 25.27 161.213 25.795 162.356 25.795C163.29 25.795 164.165 25.5383 164.981 25.025C165.798 24.4883 166.521 23.6833 167.151 22.61V13.16C166.078 12.4367 164.935 12.075 163.721 12.075C162.018 12.075 160.7 12.7167 159.766 14C158.833 15.26 158.366 17.0333 158.366 19.32Z" fill="#0D0D0D"/>
</svg>
